<?xml version="1.0" encoding="utf-8"?>
<!-- Generator: Adobe Illustrator 16.0.0, SVG Export Plug-In . SVG Version: 6.00 Build 0)  -->
<!DOCTYPE svg PUBLIC "-//W3C//DTD SVG 1.1//EN" "http://www.w3.org/Graphics/SVG/1.1/DTD/svg11.dtd">
<svg version="1.1" id="Layer_1" xmlns="http://www.w3.org/2000/svg" xmlns:xlink="http://www.w3.org/1999/xlink" x="0px" y="0px"
	 width="813.753px" height="74px" viewBox="0 0 813.753 74" enable-background="new 0 0 813.753 74" xml:space="preserve">
<g>
	<g>
		<g>
			<g>
				<g>
					<path fill="#7AC943" d="M37,37L15.373,7.233C21.949,2.456,28.872,0.206,37,0.206V37z"/>
				</g>
			</g>
			<g>
				<g>
					<path fill="#7AC943" d="M37,37L2.007,25.63C4.519,17.9,8.798,12.011,15.373,7.233L37,37z"/>
				</g>
			</g>
			<g>
				<g>
					<path fill="#7AC943" d="M37,37L2.007,48.37c-2.511-7.729-2.511-15.01,0-22.74L37,37z"/>
				</g>
			</g>
			<g>
				<g>
					<path fill="#7AC943" d="M37,37L15.373,66.768C8.797,61.988,4.519,56.102,2.007,48.37L37,37z"/>
				</g>
			</g>
			<g>
				<g>
					<path fill="#7AC943" d="M37,37v36.794c-8.128,0-15.051-2.25-21.627-7.026L37,37z"/>
				</g>
			</g>
			<g>
				<g>
					<path fill="#7AC943" d="M37,37l21.627,29.768C52.051,71.544,45.128,73.794,37,73.794V37z"/>
				</g>
			</g>
			<g>
				<g>
					<path fill="#7AC943" d="M37,37l34.992,11.37c-2.512,7.729-6.79,13.618-13.365,18.396L37,37z"/>
				</g>
			</g>
			<g>
				<g>
					<path fill="#7AC943" d="M37,37l34.992-11.37c2.513,7.73,2.513,15.011,0,22.74L37,37z"/>
				</g>
			</g>
			<g>
				<g>
					<path fill="#7AC943" d="M37,37L58.627,7.233C65.202,12.011,69.481,17.9,71.992,25.63L37,37z"/>
				</g>
			</g>
			<g>
				<g>
					<path fill="#7AC943" d="M37,37V0.206c8.128,0,15.051,2.25,21.627,7.027L37,37z"/>
				</g>
			</g>
		</g>
	</g>
	<circle fill="#FFFFFF" cx="37" cy="37" r="28.5"/>
</g>
<g>
	<g>
		<g>
			<g>
				<g>
					<path fill="#E6E6E6" d="M111,37L89.373,7.233C95.949,2.456,102.871,0.206,111,0.206V37z"/>
				</g>
			</g>
			<g>
				<g>
					<path fill="#7AC943" d="M111,37L76.007,25.63c2.513-7.73,6.79-13.619,13.366-18.397L111,37z"/>
				</g>
			</g>
			<g>
				<g>
					<path fill="#7AC943" d="M111,37L76.007,48.37c-2.511-7.729-2.511-15.01,0-22.74L111,37z"/>
				</g>
			</g>
			<g>
				<g>
					<path fill="#7AC943" d="M111,37L89.373,66.768C82.797,61.988,78.52,56.102,76.007,48.37L111,37z"/>
				</g>
			</g>
			<g>
				<g>
					<path fill="#7AC943" d="M111,37v36.794c-8.129,0-15.051-2.25-21.627-7.026L111,37z"/>
				</g>
			</g>
			<g>
				<g>
					<path fill="#7AC943" d="M111,37l21.627,29.768c-6.576,4.776-13.499,7.026-21.627,7.026V37z"/>
				</g>
			</g>
			<g>
				<g>
					<path fill="#7AC943" d="M111,37l34.992,11.37c-2.512,7.729-6.79,13.618-13.365,18.396L111,37z"/>
				</g>
			</g>
			<g>
				<g>
					<path fill="#7AC943" d="M111,37l34.992-11.37c2.513,7.73,2.513,15.011,0,22.74L111,37z"/>
				</g>
			</g>
			<g>
				<g>
					<path fill="#7AC943" d="M111,37l21.627-29.767c6.575,4.778,10.854,10.667,13.365,18.397L111,37z"/>
				</g>
			</g>
			<g>
				<g>
					<path fill="#7AC943" d="M111,37V0.206c8.128,0,15.051,2.25,21.627,7.027L111,37z"/>
				</g>
			</g>
		</g>
	</g>
	<circle fill="#FFFFFF" cx="111" cy="37" r="28.5"/>
</g>
<g>
	<g>
		<g>
			<g>
				<g>
					<path fill="#E6E6E6" d="M185,37L163.373,7.233c6.576-4.777,13.498-7.027,21.627-7.027V37z"/>
				</g>
			</g>
			<g>
				<g>
					<path fill="#E6E6E6" d="M185,37l-34.993-11.37c2.513-7.73,6.79-13.619,13.366-18.397L185,37z"/>
				</g>
			</g>
			<g>
				<g>
					<path fill="#3FA9F5" d="M185,37l-34.993,11.37c-2.511-7.729-2.511-15.01,0-22.74L185,37z"/>
				</g>
			</g>
			<g>
				<g>
					<path fill="#3FA9F5" d="M185,37l-21.627,29.768c-6.576-4.778-10.854-10.666-13.366-18.396L185,37z"/>
				</g>
			</g>
			<g>
				<g>
					<path fill="#3FA9F5" d="M185,37v36.794c-8.129,0-15.051-2.25-21.627-7.026L185,37z"/>
				</g>
			</g>
			<g>
				<g>
					<path fill="#3FA9F5" d="M185,37l21.627,29.768c-6.576,4.776-13.499,7.026-21.627,7.026V37z"/>
				</g>
			</g>
			<g>
				<g>
					<path fill="#3FA9F5" d="M185,37l34.992,11.37c-2.512,7.729-6.79,13.618-13.365,18.396L185,37z"/>
				</g>
			</g>
			<g>
				<g>
					<path fill="#3FA9F5" d="M185,37l34.992-11.37c2.513,7.73,2.513,15.011,0,22.74L185,37z"/>
				</g>
			</g>
			<g>
				<g>
					<path fill="#3FA9F5" d="M185,37l21.627-29.767c6.575,4.778,10.854,10.667,13.365,18.397L185,37z"/>
				</g>
			</g>
			<g>
				<g>
					<path fill="#3FA9F5" d="M185,37V0.206c8.128,0,15.051,2.25,21.627,7.027L185,37z"/>
				</g>
			</g>
		</g>
	</g>
	<circle fill="#FFFFFF" cx="185" cy="37" r="28.5"/>
</g>
<g>
	<g>
		<g>
			<g>
				<g>
					<path fill="#E6E6E6" d="M259,37L237.373,7.233c6.576-4.777,13.498-7.027,21.627-7.027V37z"/>
				</g>
			</g>
			<g>
				<g>
					<path fill="#E6E6E6" d="M259,37l-34.993-11.37c2.513-7.73,6.79-13.619,13.366-18.397L259,37z"/>
				</g>
			</g>
			<g>
				<g>
					<path fill="#E6E6E6" d="M259,37l-34.993,11.37c-2.511-7.729-2.511-15.01,0-22.74L259,37z"/>
				</g>
			</g>
			<g>
				<g>
					<path fill="#3FA9F5" d="M259,37l-21.627,29.768c-6.576-4.778-10.854-10.666-13.366-18.396L259,37z"/>
				</g>
			</g>
			<g>
				<g>
					<path fill="#3FA9F5" d="M259,37v36.794c-8.129,0-15.051-2.25-21.627-7.026L259,37z"/>
				</g>
			</g>
			<g>
				<g>
					<path fill="#3FA9F5" d="M259,37l21.627,29.768c-6.576,4.776-13.499,7.026-21.627,7.026V37z"/>
				</g>
			</g>
			<g>
				<g>
					<path fill="#3FA9F5" d="M259,37l34.992,11.37c-2.512,7.729-6.79,13.618-13.365,18.396L259,37z"/>
				</g>
			</g>
			<g>
				<g>
					<path fill="#3FA9F5" d="M259,37l34.992-11.37c2.513,7.73,2.513,15.011,0,22.74L259,37z"/>
				</g>
			</g>
			<g>
				<g>
					<path fill="#3FA9F5" d="M259,37l21.627-29.767c6.575,4.778,10.854,10.667,13.365,18.397L259,37z"/>
				</g>
			</g>
			<g>
				<g>
					<path fill="#3FA9F5" d="M259,37V0.206c8.128,0,15.051,2.25,21.627,7.027L259,37z"/>
				</g>
			</g>
		</g>
	</g>
	<circle fill="#FFFFFF" cx="259" cy="37" r="28.5"/>
</g>
<g>
	<g>
		<g>
			<g>
				<g>
					<path fill="#E6E6E6" d="M333,37L311.372,7.233C317.948,2.456,324.87,0.206,333,0.206V37z"/>
				</g>
			</g>
			<g>
				<g>
					<path fill="#E6E6E6" d="M333,37l-34.993-11.37c2.513-7.73,6.79-13.619,13.365-18.397L333,37z"/>
				</g>
			</g>
			<g>
				<g>
					<path fill="#E6E6E6" d="M333,37l-34.993,11.37c-2.511-7.729-2.511-15.01,0-22.74L333,37z"/>
				</g>
			</g>
			<g>
				<g>
					<path fill="#E6E6E6" d="M333,37l-21.628,29.768c-6.575-4.778-10.854-10.666-13.365-18.396L333,37z"/>
				</g>
			</g>
			<g>
				<g>
					<path fill="#FF00FF" d="M333,37v36.794c-8.13,0-15.052-2.25-21.628-7.026L333,37z"/>
				</g>
			</g>
			<g>
				<g>
					<path fill="#FF00FF" d="M333,37l21.627,29.768c-6.576,4.776-13.499,7.026-21.627,7.026V37z"/>
				</g>
			</g>
			<g>
				<g>
					<path fill="#FF00FF" d="M333,37l34.991,11.37c-2.511,7.729-6.79,13.618-13.364,18.396L333,37z"/>
				</g>
			</g>
			<g>
				<g>
					<path fill="#FF00FF" d="M333,37l34.991-11.37c2.514,7.73,2.514,15.011,0,22.74L333,37z"/>
				</g>
			</g>
			<g>
				<g>
					<path fill="#FF00FF" d="M333,37l21.627-29.767c6.574,4.778,10.854,10.667,13.364,18.397L333,37z"/>
				</g>
			</g>
			<g>
				<g>
					<path fill="#FF00FF" d="M333,37V0.206c8.128,0,15.051,2.25,21.627,7.027L333,37z"/>
				</g>
			</g>
		</g>
	</g>
	<circle fill="#FFFFFF" cx="333" cy="37" r="28.5"/>
</g>
<g>
	<g>
		<g>
			<g>
				<g>
					<path fill="#E6E6E6" d="M407,37L385.372,7.233C391.948,2.456,398.87,0.206,407,0.206V37z"/>
				</g>
			</g>
			<g>
				<g>
					<path fill="#E6E6E6" d="M407,37l-34.993-11.37c2.513-7.73,6.79-13.619,13.365-18.397L407,37z"/>
				</g>
			</g>
			<g>
				<g>
					<path fill="#E6E6E6" d="M407,37l-34.993,11.37c-2.512-7.729-2.512-15.01,0-22.74L407,37z"/>
				</g>
			</g>
			<g>
				<g>
					<path fill="#E6E6E6" d="M407,37l-21.628,29.768c-6.575-4.778-10.854-10.666-13.365-18.396L407,37z"/>
				</g>
			</g>
			<g>
				<g>
					<path fill="#E6E6E6" d="M407,37v36.794c-8.13,0-15.052-2.25-21.628-7.026L407,37z"/>
				</g>
			</g>
			<g>
				<g>
					<path fill="#FF00FF" d="M407,37l21.627,29.768c-6.576,4.776-13.499,7.026-21.627,7.026V37z"/>
				</g>
			</g>
			<g>
				<g>
					<path fill="#FF00FF" d="M407,37l34.991,11.37c-2.511,7.729-6.79,13.618-13.364,18.396L407,37z"/>
				</g>
			</g>
			<g>
				<g>
					<path fill="#FF00FF" d="M407,37l34.991-11.37c2.514,7.73,2.514,15.011,0,22.74L407,37z"/>
				</g>
			</g>
			<g>
				<g>
					<path fill="#FF00FF" d="M407,37l21.627-29.767c6.574,4.778,10.854,10.667,13.364,18.397L407,37z"/>
				</g>
			</g>
			<g>
				<g>
					<path fill="#FF00FF" d="M407,37V0.206c8.128,0,15.051,2.25,21.627,7.027L407,37z"/>
				</g>
			</g>
		</g>
	</g>
	<circle fill="#FFFFFF" cx="407" cy="37" r="28.5"/>
</g>
<g>
	<g>
		<g>
			<g>
				<g>
					<path fill="#E6E6E6" d="M481,37L459.372,7.233C465.948,2.456,472.87,0.206,481,0.206V37z"/>
				</g>
			</g>
			<g>
				<g>
					<path fill="#E6E6E6" d="M481,37l-34.993-11.37c2.513-7.73,6.79-13.619,13.365-18.397L481,37z"/>
				</g>
			</g>
			<g>
				<g>
					<path fill="#E6E6E6" d="M481,37l-34.993,11.37c-2.512-7.729-2.512-15.01,0-22.74L481,37z"/>
				</g>
			</g>
			<g>
				<g>
					<path fill="#E6E6E6" d="M481,37l-21.628,29.768c-6.575-4.778-10.854-10.666-13.365-18.396L481,37z"/>
				</g>
			</g>
			<g>
				<g>
					<path fill="#E6E6E6" d="M481,37v36.794c-8.13,0-15.052-2.25-21.628-7.026L481,37z"/>
				</g>
			</g>
			<g>
				<g>
					<path fill="#E6E6E6" d="M481,37l21.627,29.768c-6.576,4.776-13.499,7.026-21.627,7.026V37z"/>
				</g>
			</g>
			<g>
				<g>
					<path fill="#F7931E" d="M481,37l34.991,11.37c-2.511,7.729-6.79,13.618-13.364,18.396L481,37z"/>
				</g>
			</g>
			<g>
				<g>
					<path fill="#F7931E" d="M481,37l34.991-11.37c2.514,7.73,2.514,15.011,0,22.74L481,37z"/>
				</g>
			</g>
			<g>
				<g>
					<path fill="#FF931E" d="M481,37l21.627-29.767c6.574,4.778,10.854,10.667,13.364,18.397L481,37z"/>
				</g>
			</g>
			<g>
				<g>
					<path fill="#FF931E" d="M481,37V0.206c8.128,0,15.051,2.25,21.627,7.027L481,37z"/>
				</g>
			</g>
		</g>
	</g>
	<circle fill="#FFFFFF" cx="481" cy="37" r="28.5"/>
</g>
<g>
	<g>
		<g>
			<g>
				<g>
					<path fill="#E6E6E6" d="M555,37L533.372,7.233C539.948,2.456,546.87,0.206,555,0.206V37z"/>
				</g>
			</g>
			<g>
				<g>
					<path fill="#E6E6E6" d="M555,37l-34.993-11.37c2.513-7.73,6.79-13.619,13.366-18.397L555,37z"/>
				</g>
			</g>
			<g>
				<g>
					<path fill="#E6E6E6" d="M555,37l-34.993,11.37c-2.512-7.729-2.512-15.01,0-22.74L555,37z"/>
				</g>
			</g>
			<g>
				<g>
					<path fill="#E6E6E6" d="M555,37l-21.628,29.768c-6.575-4.778-10.854-10.666-13.365-18.396L555,37z"/>
				</g>
			</g>
			<g>
				<g>
					<path fill="#E6E6E6" d="M555,37v36.794c-8.13,0-15.052-2.25-21.628-7.026L555,37z"/>
				</g>
			</g>
			<g>
				<g>
					<path fill="#E6E6E6" d="M555,37l21.627,29.768c-6.576,4.776-13.499,7.026-21.627,7.026V37z"/>
				</g>
			</g>
			<g>
				<g>
					<path fill="#E6E6E6" d="M555,37l34.991,11.37c-2.511,7.729-6.79,13.618-13.364,18.396L555,37z"/>
				</g>
			</g>
			<g>
				<g>
					<path fill="#F7931E" d="M555,37l34.991-11.37c2.514,7.73,2.514,15.011,0,22.74L555,37z"/>
				</g>
			</g>
			<g>
				<g>
					<path fill="#FF931E" d="M555,37l21.627-29.767c6.574,4.778,10.854,10.667,13.364,18.397L555,37z"/>
				</g>
			</g>
			<g>
				<g>
					<path fill="#FF931E" d="M555,37V0.206c8.128,0,15.051,2.25,21.627,7.027L555,37z"/>
				</g>
			</g>
		</g>
	</g>
	<circle fill="#FFFFFF" cx="555" cy="37" r="28.5"/>
</g>
<g>
	<g>
		<g>
			<g>
				<g>
					<path fill="#E6E6E6" d="M629,37L607.373,7.233c6.576-4.777,13.498-7.027,21.628-7.027L629,37L629,37z"/>
				</g>
			</g>
			<g>
				<g>
					<path fill="#E6E6E6" d="M629,37l-34.992-11.37c2.513-7.73,6.79-13.619,13.365-18.397L629,37z"/>
				</g>
			</g>
			<g>
				<g>
					<path fill="#E6E6E6" d="M629,37l-34.992,11.37c-2.512-7.729-2.512-15.01,0-22.74L629,37z"/>
				</g>
			</g>
			<g>
				<g>
					<path fill="#E6E6E6" d="M629,37l-21.627,29.768c-6.575-4.778-10.854-10.666-13.365-18.396L629,37z"/>
				</g>
			</g>
			<g>
				<g>
					<path fill="#E6E6E6" d="M629,37v36.794c-8.129,0-15.051-2.25-21.627-7.026L629,37z"/>
				</g>
			</g>
			<g>
				<g>
					<path fill="#E6E6E6" d="M629,37l21.628,29.768c-6.576,4.776-13.499,7.026-21.628,7.026V37z"/>
				</g>
			</g>
			<g>
				<g>
					<path fill="#E6E6E6" d="M629,37l34.992,11.37c-2.511,7.729-6.79,13.618-13.364,18.396L629,37z"/>
				</g>
			</g>
			<g>
				<g>
					<path fill="#E6E6E6" d="M629,37l34.992-11.37c2.514,7.73,2.514,15.011,0,22.74L629,37z"/>
				</g>
			</g>
			<g>
				<g>
					<path fill="#FF1D25" d="M629,37l21.628-29.767c6.574,4.778,10.854,10.667,13.364,18.397L629,37z"/>
				</g>
			</g>
			<g>
				<g>
					<path fill="#FF1D25" d="M629,37V0.206c8.129,0,15.052,2.25,21.628,7.027L629,37z"/>
				</g>
			</g>
		</g>
	</g>
	<circle fill="#FFFFFF" cx="629" cy="37" r="28.5"/>
</g>
<g>
	<g>
		<g>
			<g>
				<g>
					<path fill="#E6E6E6" d="M703,37L681.373,7.233c6.576-4.777,13.498-7.027,21.628-7.027L703,37L703,37z"/>
				</g>
			</g>
			<g>
				<g>
					<path fill="#E6E6E6" d="M703,37l-34.992-11.37c2.513-7.73,6.79-13.619,13.365-18.397L703,37z"/>
				</g>
			</g>
			<g>
				<g>
					<path fill="#E6E6E6" d="M703,37l-34.992,11.37c-2.512-7.729-2.512-15.01,0-22.74L703,37z"/>
				</g>
			</g>
			<g>
				<g>
					<path fill="#E6E6E6" d="M703,37l-21.627,29.768c-6.575-4.778-10.854-10.666-13.365-18.396L703,37z"/>
				</g>
			</g>
			<g>
				<g>
					<path fill="#E6E6E6" d="M703,37v36.794c-8.129,0-15.051-2.25-21.627-7.026L703,37z"/>
				</g>
			</g>
			<g>
				<g>
					<path fill="#E6E6E6" d="M703,37l21.628,29.768c-6.576,4.776-13.499,7.026-21.628,7.026V37z"/>
				</g>
			</g>
			<g>
				<g>
					<path fill="#E6E6E6" d="M703,37l34.992,11.37c-2.511,7.729-6.79,13.618-13.364,18.396L703,37z"/>
				</g>
			</g>
			<g>
				<g>
					<path fill="#E6E6E6" d="M703,37l34.992-11.37c2.514,7.73,2.514,15.011,0,22.74L703,37z"/>
				</g>
			</g>
			<g>
				<g>
					<path fill="#E6E6E6" d="M703,37l21.628-29.767c6.574,4.778,10.854,10.667,13.364,18.397L703,37z"/>
				</g>
			</g>
			<g>
				<g>
					<path fill="#FF1D25" d="M703,37V0.206c8.129,0,15.052,2.25,21.628,7.027L703,37z"/>
				</g>
			</g>
		</g>
	</g>
	<circle fill="#FFFFFF" cx="703" cy="37" r="28.5"/>
</g>
<g>
	<g>
		<g>
			<g>
				<g>
					<path fill="#E6E6E6" d="M776.876,37L755.249,7.233c6.576-4.777,13.499-7.027,21.627-7.027V37z"/>
				</g>
			</g>
			<g>
				<g>
					<path fill="#E6E6E6" d="M776.876,37l-34.993-11.37c2.512-7.73,6.791-13.619,13.366-18.397L776.876,37z"/>
				</g>
			</g>
			<g>
				<g>
					<path fill="#E6E6E6" d="M776.876,37l-34.993,11.37c-2.511-7.729-2.511-15.01,0-22.74L776.876,37z"/>
				</g>
			</g>
			<g>
				<g>
					<path fill="#E6E6E6" d="M776.876,37l-21.627,29.768c-6.576-4.779-10.854-10.666-13.366-18.397L776.876,37z"/>
				</g>
			</g>
			<g>
				<g>
					<path fill="#E6E6E6" d="M776.876,37v36.794c-8.128,0-15.051-2.25-21.627-7.026L776.876,37z"/>
				</g>
			</g>
			<g>
				<g>
					<path fill="#E6E6E6" d="M776.876,37l21.627,29.768c-6.576,4.776-13.499,7.026-21.627,7.026V37z"/>
				</g>
			</g>
			<g>
				<g>
					<path fill="#E6E6E6" d="M776.876,37l34.992,11.37c-2.512,7.729-6.79,13.618-13.365,18.396L776.876,37z"/>
				</g>
			</g>
			<g>
				<g>
					<path fill="#E6E6E6" d="M776.876,37l34.992-11.37c2.513,7.73,2.513,15.011,0,22.74L776.876,37z"/>
				</g>
			</g>
			<g>
				<g>
					<path fill="#E6E6E6" d="M776.876,37l21.627-29.767c6.575,4.778,10.854,10.667,13.365,18.397L776.876,37z"/>
				</g>
			</g>
			<g>
				<g>
					<path fill="#E6E6E6" d="M776.876,37V0.206c8.128,0,15.051,2.25,21.627,7.027L776.876,37z"/>
				</g>
			</g>
		</g>
	</g>
	<circle fill="#FFFFFF" cx="776.876" cy="37" r="28.5"/>
</g>
</svg>
