<?xml version="1.0" encoding="utf-8"?>
<!-- Generator: Adobe Illustrator 16.0.0, SVG Export Plug-In . SVG Version: 6.00 Build 0)  -->
<!DOCTYPE svg PUBLIC "-//W3C//DTD SVG 1.1//EN" "http://www.w3.org/Graphics/SVG/1.1/DTD/svg11.dtd">
<svg version="1.1" id="Layer_1" xmlns="http://www.w3.org/2000/svg" xmlns:xlink="http://www.w3.org/1999/xlink" x="0px" y="0px"
	 width="12.357px" height="21.806px" viewBox="0 0 12.357 21.806" enable-background="new 0 0 12.357 21.806" xml:space="preserve">
<g>
	<path fill-rule="evenodd" clip-rule="evenodd" fill="#CCCCCC" d="M4.286,10.447c-0.802,0.664-1.078,0.94-1.614,1.467
		c-0.288,0.236-0.466,0.525-0.431,0.939c0.047,0.558,0.029,0.572,0.025,1.133c0.112,1.521-2.211,1.688-2.239,0.36
		c-0.009-0.907,0-1.498-0.027-2.406c0-1.022,3.365-3.544,4.289-4.314c1.608-0.139,2.834,0.001,2.834,0.001s-0.053,3.04-0.042,4.457
		c0.097,1.463,2.813,1.75,4,4.406c0.198,0.444,0.594,1.625,1.188,3.531c0.563,1.808-2.124,2.489-2.719,0.875
		c-0.435-1.177-0.93-3.411-1.656-4.063C6.249,15.36,4.279,14.8,4.279,13.219C4.279,12.016,4.286,10.572,4.286,10.447z"/>
	<path fill-rule="evenodd" clip-rule="evenodd" fill="#CCCCCC" d="M4.313,16.02c0.442,0.308,1.573,1.148,1.989,1.437
		c-0.922,1.602-1.049,1.85-2.097,3.627c-0.929,1.401-3.255,0.179-2.296-1.254C3.058,18.111,4.271,16.083,4.313,16.02z"/>
	<path fill-rule="evenodd" clip-rule="evenodd" fill="#CCCCCC" d="M8.539,8.335c0.736,0.337,2.52,1.186,2.787,1.307
		c1.563,0.657,1.279,3.17-0.381,2.662c-0.636-0.255-2.401-1.143-2.401-1.143S8.581,9.475,8.539,8.335z"/>
	<circle fill-rule="evenodd" clip-rule="evenodd" fill="#CCCCCC" cx="6.248" cy="3.5" r="2.458"/>
</g>
<g>
</g>
<g>
</g>
<g>
</g>
<g>
</g>
<g>
</g>
<g>
</g>
<g>
</g>
<g>
</g>
<g>
</g>
<g>
</g>
<g>
</g>
<g>
</g>
<g>
</g>
<g>
</g>
<g>
</g>
</svg>
