<?xml version="1.0" encoding="utf-8"?>
<!-- Generator: Adobe Illustrator 16.0.0, SVG Export Plug-In . SVG Version: 6.00 Build 0)  -->
<!DOCTYPE svg PUBLIC "-//W3C//DTD SVG 1.1//EN" "http://www.w3.org/Graphics/SVG/1.1/DTD/svg11.dtd">
<svg version="1.1" id="Layer_1" xmlns="http://www.w3.org/2000/svg" xmlns:xlink="http://www.w3.org/1999/xlink" x="0px" y="0px"
	 width="445px" height="445px" viewBox="0 0 445 445" enable-background="new 0 0 445 445" xml:space="preserve">
<path fill-rule="evenodd" clip-rule="evenodd" fill="#FFFFFF" d="M78.984,15.042h287.075c35.313,0,63.942,28.628,63.942,63.942
	v287.075c0,35.313-28.629,63.942-63.942,63.942H78.984c-35.313,0-63.942-28.629-63.942-63.942V78.984
	C15.042,43.67,43.67,15.042,78.984,15.042L78.984,15.042z"/>
<path fill-rule="evenodd" clip-rule="evenodd" fill="#4D75A3" d="M219.04,305.526h16.974c0,0,5.126-0.565,7.747-3.386
	c2.409-2.592,2.332-7.456,2.332-7.456s-0.332-22.775,10.237-26.13c10.423-3.306,23.804,22.013,37.986,31.748
	c10.725,7.365,18.875,5.753,18.875,5.753l37.925-0.529c0,0,19.838-1.225,10.431-16.822c-0.77-1.274-5.479-11.538-28.199-32.626
	c-23.781-22.072-20.594-18.501,8.052-56.68c17.444-23.251,24.418-37.445,22.238-43.525c-2.076-5.792-14.907-4.262-14.907-4.262
	l-42.7,0.265c0,0-3.168-0.432-5.515,0.973c-2.295,1.373-3.768,4.581-3.768,4.581s-6.761,17.991-15.771,33.294
	c-19.014,32.286-26.617,33.995-29.726,31.987c-7.231-4.673-5.424-18.769-5.424-28.786c0-31.29,4.746-44.336-9.242-47.712
	c-4.641-1.121-8.06-1.862-19.931-1.982c-15.237-0.156-28.13,0.046-35.432,3.623c-4.858,2.38-8.606,7.679-6.322,7.985
	c2.823,0.376,9.213,1.725,12.601,6.335c4.377,5.955,4.223,19.323,4.223,19.323s2.515,36.833-5.872,41.407
	c-5.755,3.138-13.651-3.269-30.603-32.561c-8.684-15.003-15.242-31.591-15.242-31.591s-1.263-3.099-3.52-4.758
	c-2.736-2.01-6.559-2.647-6.559-2.647l-40.578,0.265c0,0-6.09,0.17-8.328,2.819c-1.991,2.358-0.159,7.229-0.159,7.229
	s31.766,74.322,67.737,111.775C181.589,307.78,219.04,305.526,219.04,305.526L219.04,305.526z"/>
</svg>
